<svg id="Capa_1" enable-background="new 0 0 512 512" height="512" viewBox="0 0 512 512" width="512" xmlns="http://www.w3.org/2000/svg"><g><path d="m504.194 359.312-30.694-121.182v-118.13h-30v-120h-135v120h-105v-120h-135v120h-30v118.13l-30.693 121.181c-5.181 20.449-7.807 41.514-7.807 62.611v90.078h242v-90.078c0-21.095-2.626-42.159-7.806-62.61l-26.421-104.312h96.454l-26.421 104.312c-5.18 20.451-7.806 41.516-7.806 62.61v90.078h242v-90.078c0-21.097-2.626-42.162-7.806-62.61zm-60.694-134.312h-105v-75h105zm-105-135h75v30h-75zm75-60v30h-75v-30zm-105 120v75h-105v-75zm-210-60h75v30h-75zm75-60v30h-75v-30zm0 120v75h-105v-75zm-143.5 332v-30h182v30zm175.112-115.323c4.571 18.046 6.888 36.633 6.888 55.245v.078h-182v-.078c0-18.614 2.317-37.201 6.888-55.245l28.286-111.677h111.651zm101.776 0 28.286-111.677h111.651l28.287 111.678c4.57 18.043 6.888 36.63 6.888 55.244v.078h-182v-.078c0-18.612 2.317-37.199 6.888-55.245zm-6.888 115.323v-30h182v30z"/></g></svg>